<svg width="198" height="67" viewBox="0 0 198 67" fill="none" xmlns="http://www.w3.org/2000/svg">
<path d="M25.8602 1.9C26.7268 1.9 27.4602 2.11666 28.0602 2.55C28.6602 2.95 28.9602 3.45 28.9602 4.05C28.9602 5.11667 28.6268 5.98333 27.9602 6.65C27.2935 7.28333 26.3435 7.6 25.1102 7.6C23.1768 7.6 21.7102 7.61666 20.7102 7.65C20.6435 8.05 20.3435 9.85 19.8102 13.05C19.2102 16.6167 18.8435 18.8 18.7102 19.6L17.6602 26.15C16.9268 31.05 16.3435 35.15 15.9102 38.45C16.6102 38.4167 17.5602 38.4 18.7602 38.4C20.5268 38.4 21.7268 38.6333 22.3602 39.1C22.9935 39.5667 23.3102 40.2667 23.3102 41.2C23.3102 42.0667 22.9602 42.8 22.2602 43.4C21.5935 44 20.6435 44.3 19.4102 44.3C18.5768 44.3 17.2602 44.2667 15.4602 44.2C13.7935 44.1333 12.6935 44.1 12.1602 44.1C10.0602 44.1 7.76016 44.2833 5.26016 44.65C4.16016 44.8167 3.37682 44.9 2.91016 44.9C2.17682 44.9 1.56016 44.7 1.06016 44.3C0.560156 43.9 0.310156 43.3167 0.310156 42.55C0.310156 41.35 0.84349 40.4167 1.91016 39.75C2.97682 39.0833 4.47682 38.7333 6.41016 38.7L8.76016 38.65L8.91016 37.55C9.71016 32.2167 10.2935 28.45 10.6602 26.25L11.7602 19.7C12.4268 15.8333 13.0268 11.85 13.5602 7.75L9.36016 7.8C8.16016 7.8 7.32682 7.61667 6.86016 7.25C6.42682 6.85 6.21016 6.3 6.21016 5.6C6.21016 3.33333 7.84349 2.11667 11.1102 1.95C12.6435 1.88333 14.5102 1.85 16.7102 1.85L25.8602 1.9ZM31.866 44.25C30.5993 44.25 29.6993 43.5833 29.166 42.25C28.666 40.9167 28.416 38.7833 28.416 35.85C28.416 31.5167 29.0327 27.4 30.266 23.5C30.566 22.5333 31.0493 21.8333 31.716 21.4C32.416 20.9333 33.3827 20.7 34.616 20.7C35.2827 20.7 35.7493 20.7833 36.016 20.95C36.2827 21.1167 36.416 21.4333 36.416 21.9C36.416 22.4333 36.166 23.6333 35.666 25.5C35.3327 26.8333 35.066 28 34.866 29C34.666 30 34.4993 31.2333 34.366 32.7C35.466 29.8333 36.6993 27.5 38.066 25.7C39.4327 23.9 40.766 22.6167 42.066 21.85C43.3993 21.0833 44.616 20.7 45.716 20.7C47.8827 20.7 48.966 21.7833 48.966 23.95C48.966 25.25 48.5993 27.6 47.866 31C47.2327 33.9 46.916 35.8167 46.916 36.75C46.916 38.0833 47.3994 38.75 48.366 38.75C49.0327 38.75 49.816 38.35 50.716 37.55C51.6494 36.7167 52.8827 35.3833 54.416 33.55C54.816 33.0833 55.266 32.85 55.766 32.85C56.1993 32.85 56.5327 33.05 56.766 33.45C57.0327 33.85 57.166 34.4 57.166 35.1C57.166 36.4333 56.8493 37.4667 56.216 38.2C54.7827 39.9667 53.2327 41.4167 51.566 42.55C49.9327 43.6833 48.066 44.25 45.966 44.25C44.266 44.25 42.9827 43.7667 42.116 42.8C41.2493 41.8 40.816 40.3667 40.816 38.5C40.816 37.5667 41.0493 35.9 41.516 33.5C41.9493 31.4 42.166 29.95 42.166 29.15C42.166 28.6167 41.9827 28.35 41.616 28.35C41.1827 28.35 40.566 28.9167 39.766 30.05C38.9993 31.15 38.1993 32.6167 37.366 34.45C36.566 36.2833 35.916 38.2167 35.416 40.25C35.0493 41.8167 34.616 42.8833 34.116 43.45C33.6493 43.9833 32.8993 44.25 31.866 44.25ZM78.359 28.8C78.459 28.7667 78.6257 28.75 78.859 28.75C79.359 28.75 79.7423 28.9167 80.009 29.25C80.2757 29.5833 80.409 30.0333 80.409 30.6C80.409 31.6333 80.209 32.45 79.809 33.05C79.409 33.6167 78.809 34.0333 78.009 34.3C76.4757 34.8 74.8423 35.05 73.109 35.05C71.6423 35.05 70.259 34.85 68.959 34.45C67.9923 36.0167 66.9257 37.6333 65.759 39.3C64.4257 41.2 63.2757 42.5 62.309 43.2C61.3423 43.9 60.2423 44.25 59.009 44.25C57.6423 44.25 56.559 43.7167 55.759 42.65C54.9923 41.5833 54.509 39.9 54.309 37.6C53.909 32.9333 53.709 28.85 53.709 25.35V23.6C53.7423 22.5 54.0423 21.7333 54.609 21.3C55.1757 20.8667 56.0257 20.65 57.159 20.65C58.0257 20.65 58.659 20.85 59.059 21.25C59.4923 21.6167 59.709 22.25 59.709 23.15C59.709 26.9833 59.9423 31.9667 60.409 38.1C62.409 35.1333 63.909 32.7667 64.909 31C64.409 30.0333 64.159 28.8833 64.159 27.55C64.159 26.4167 64.409 25.3167 64.909 24.25C65.409 23.1833 66.0923 22.3167 66.959 21.65C67.8257 20.9833 68.809 20.65 69.909 20.65C70.8757 20.65 71.659 21 72.259 21.7C72.859 22.3667 73.159 23.35 73.159 24.65C73.159 26.15 72.759 27.8667 71.959 29.8C73.2257 29.7333 74.909 29.4833 77.009 29.05L78.359 28.8ZM82.6199 17.4C81.2199 17.4 80.1699 17.0833 79.4699 16.45C78.7699 15.7833 78.4199 14.8667 78.4199 13.7C78.4199 12.5333 78.8699 11.5667 79.7699 10.8C80.7033 10 81.8533 9.6 83.2199 9.6C84.4533 9.6 85.4533 9.9 86.2199 10.5C86.9866 11.1 87.3699 11.95 87.3699 13.05C87.3699 14.3833 86.9366 15.45 86.0699 16.25C85.2033 17.0167 84.0533 17.4 82.6199 17.4ZM82.2199 44.25C80.0533 44.25 78.4699 43.4833 77.4699 41.95C76.5033 40.4167 76.0199 38.3833 76.0199 35.85C76.0199 34.35 76.2033 32.4333 76.5699 30.1C76.9699 27.7333 77.4699 25.5333 78.0699 23.5C78.3699 22.4333 78.7699 21.7 79.2699 21.3C79.7699 20.9 80.5699 20.7 81.6699 20.7C83.3699 20.7 84.2199 21.2667 84.2199 22.4C84.2199 23.2333 83.9033 25.1667 83.2699 28.2C82.4699 31.8667 82.0699 34.35 82.0699 35.65C82.0699 36.65 82.2033 37.4167 82.4699 37.95C82.7366 38.4833 83.1866 38.75 83.8199 38.75C84.4199 38.75 85.1699 38.3333 86.0699 37.5C86.9699 36.6667 88.1699 35.35 89.6699 33.55C90.0699 33.0833 90.5199 32.85 91.0199 32.85C91.4533 32.85 91.7866 33.05 92.0199 33.45C92.2866 33.85 92.4199 34.4 92.4199 35.1C92.4199 36.4333 92.1033 37.4667 91.4699 38.2C88.1699 42.2333 85.0866 44.25 82.2199 44.25ZM110.675 32.85C111.108 32.85 111.441 33.05 111.675 33.45C111.941 33.85 112.075 34.4 112.075 35.1C112.075 36.4333 111.758 37.4667 111.125 38.2C109.691 39.9667 108.125 41.4167 106.425 42.55C104.725 43.6833 102.775 44.25 100.575 44.25C93.7746 44.25 90.3746 39.4667 90.3746 29.9C90.3746 28.4333 90.4246 26.95 90.5246 25.45H88.5746C87.5746 25.45 86.8913 25.2667 86.5246 24.9C86.1913 24.5333 86.0246 23.95 86.0246 23.15C86.0246 21.2833 86.7746 20.35 88.2746 20.35H91.1246C91.6913 16.6833 92.5579 13.3333 93.7246 10.3C94.8913 7.26666 96.2913 4.85 97.9246 3.05C99.5913 1.25 101.375 0.349999 103.275 0.349999C104.675 0.349999 105.775 0.966665 106.575 2.2C107.375 3.43333 107.775 4.98333 107.775 6.85C107.775 12.0167 105.608 16.5167 101.275 20.35H106.875C107.408 20.35 107.791 20.4667 108.025 20.7C108.258 20.9333 108.375 21.3667 108.375 22C108.375 24.3 106.491 25.45 102.725 25.45H96.6246C96.5579 27.1167 96.5246 28.4167 96.5246 29.35C96.5246 32.8167 96.9246 35.25 97.7246 36.65C98.5579 38.05 99.8579 38.75 101.625 38.75C103.058 38.75 104.325 38.3167 105.425 37.45C106.525 36.5833 107.825 35.2833 109.325 33.55C109.725 33.0833 110.175 32.85 110.675 32.85ZM101.925 5.15C101.425 5.15 100.858 5.78333 100.225 7.05C99.6246 8.28333 99.0413 10.0167 98.4746 12.25C97.9413 14.45 97.4913 16.9 97.1246 19.6C99.0913 17.9 100.558 16 101.525 13.9C102.525 11.7667 103.025 9.83333 103.025 8.1C103.025 6.13333 102.658 5.15 101.925 5.15ZM154.304 32.85C154.737 32.85 155.07 33.05 155.304 33.45C155.57 33.85 155.704 34.4 155.704 35.1C155.704 36.4 155.387 37.4333 154.754 38.2C151.454 42.2333 147.937 44.25 144.204 44.25C140.97 44.25 138.387 43 136.454 40.5C134.52 38 133.554 34.4167 133.554 29.75C133.554 28.6167 133.604 27.4833 133.704 26.35C131.504 26.75 129.104 27.05 126.504 27.25C124.77 27.3833 123.587 27.4667 122.954 27.5C122.287 30.9 121.354 35.0667 120.154 40C119.454 42.9 118.12 44.35 116.154 44.35C114.02 44.35 112.954 43.3833 112.954 41.45C112.954 41.0167 113.037 40.4167 113.204 39.65C114.337 35.0833 115.237 31.2167 115.904 28.05L113.504 28.15C112.404 28.15 111.604 27.9667 111.104 27.6C110.604 27.2 110.354 26.5667 110.354 25.7C110.354 24.6 110.67 23.8 111.304 23.3C111.937 22.7667 112.987 22.4667 114.454 22.4L117.104 22.3C117.97 17.6 118.404 14.0167 118.404 11.55C118.404 9.98333 118.17 8.91666 117.704 8.35C117.237 7.78333 116.62 7.5 115.854 7.5C113.52 7.5 110.887 9.45 107.954 13.35C107.52 13.9167 107.037 14.2 106.504 14.2C106.037 14.2 105.637 13.9833 105.304 13.55C104.97 13.1167 104.804 12.5667 104.804 11.9C104.804 10.8667 105.22 9.76667 106.054 8.6C107.52 6.56666 109.37 4.9 111.604 3.6C113.837 2.26666 116.104 1.6 118.404 1.6C120.57 1.6 122.237 2.35 123.404 3.85C124.604 5.31666 125.204 7.61666 125.204 10.75C125.204 13.5167 124.804 17.2667 124.004 22L128.904 21.75C131.004 21.65 132.804 21.4833 134.304 21.25C134.904 17.5833 135.82 14.15 137.054 10.95C138.287 7.75 139.82 5.15 141.654 3.15C143.487 1.15 145.537 0.149998 147.804 0.149998C149.47 0.149998 150.787 0.816665 151.754 2.15C152.72 3.45 153.204 5.16666 153.204 7.3C153.204 15.5667 148.987 21.3 140.554 24.5C140.454 25.8333 140.404 27.2167 140.404 28.65C140.404 32.15 140.837 34.6333 141.704 36.1C142.57 37.5667 143.787 38.3 145.354 38.3C146.72 38.3 147.97 37.95 149.104 37.25C150.237 36.5167 151.52 35.2833 152.954 33.55C153.354 33.0833 153.804 32.85 154.304 32.85ZM147.554 4.5C146.82 4.5 146.037 5.16666 145.204 6.5C144.404 7.83333 143.637 9.65 142.904 11.95C142.17 14.25 141.587 16.7667 141.154 19.5C143.82 18.4 145.787 16.8333 147.054 14.8C148.32 12.7667 148.954 10.15 148.954 6.95C148.954 6.18333 148.82 5.58333 148.554 5.15C148.287 4.71667 147.954 4.5 147.554 4.5ZM180.45 32.85C180.883 32.85 181.217 33.05 181.45 33.45C181.717 33.85 181.85 34.4 181.85 35.1C181.85 36.4333 181.533 37.4667 180.9 38.2C179.667 39.7 177.917 41.0833 175.65 42.35C173.417 43.6167 171.017 44.25 168.45 44.25C164.95 44.25 162.233 43.3 160.3 41.4C158.367 39.5 157.4 36.9 157.4 33.6C157.4 31.3 157.883 29.1667 158.85 27.2C159.817 25.2 161.15 23.6167 162.85 22.45C164.583 21.2833 166.533 20.7 168.7 20.7C170.633 20.7 172.183 21.2833 173.35 22.45C174.517 23.5833 175.1 25.1333 175.1 27.1C175.1 29.4 174.267 31.3833 172.6 33.05C170.967 34.6833 168.183 35.9833 164.25 36.95C165.083 38.4833 166.667 39.25 169 39.25C170.5 39.25 172.2 38.7333 174.1 37.7C176.033 36.6333 177.7 35.25 179.1 33.55C179.5 33.0833 179.95 32.85 180.45 32.85ZM167.85 25.6C166.617 25.6 165.567 26.3167 164.7 27.75C163.867 29.1833 163.45 30.9167 163.45 32.95V33.05C165.417 32.5833 166.967 31.8833 168.1 30.95C169.233 30.0167 169.8 28.9333 169.8 27.7C169.8 27.0667 169.617 26.5667 169.25 26.2C168.917 25.8 168.45 25.6 167.85 25.6ZM195.279 20.7C196.046 20.7 196.579 20.8 196.879 21C197.179 21.2 197.329 21.5333 197.329 22C197.329 22.8 196.896 25.65 196.029 30.55C195.262 35.25 194.812 38.0333 194.679 38.9C193.446 47.4667 191.746 54.25 189.579 59.25C187.412 64.25 184.529 66.75 180.929 66.75C179.229 66.75 177.846 66.2167 176.779 65.15C175.712 64.1167 175.179 62.75 175.179 61.05C175.179 59.4833 175.529 57.8833 176.229 56.25C176.962 54.6167 178.296 52.7333 180.229 50.6C182.196 48.5 184.962 46.0833 188.529 43.35L188.679 42.2C188.912 40.9667 189.179 39.2 189.479 36.9C188.812 39.3 187.879 41.1333 186.679 42.4C185.479 43.6333 184.212 44.25 182.879 44.25C181.379 44.25 180.146 43.5667 179.179 42.2C178.246 40.8 177.779 39.0667 177.779 37C177.779 34.5 177.946 32.2167 178.279 30.15C178.612 28.05 179.162 25.8333 179.929 23.5C180.262 22.5 180.729 21.7833 181.329 21.35C181.929 20.9167 182.879 20.7 184.179 20.7C184.912 20.7 185.412 20.8167 185.679 21.05C185.979 21.2833 186.129 21.6333 186.129 22.1C186.129 22.3667 185.946 23.2667 185.579 24.8C185.246 26.0333 184.979 27.15 184.779 28.15C184.512 29.5167 184.279 30.8333 184.079 32.1C183.879 33.3333 183.779 34.35 183.779 35.15C183.779 36.4167 184.129 37.05 184.829 37.05C185.329 37.05 185.946 36.55 186.679 35.55C187.446 34.55 188.246 33.0333 189.079 31C189.946 28.9667 190.779 26.4667 191.579 23.5C191.846 22.5 192.246 21.7833 192.779 21.35C193.346 20.9167 194.179 20.7 195.279 20.7ZM181.479 61.9C182.312 61.9 183.246 60.9333 184.279 59C185.312 57.0667 186.346 53.85 187.379 49.35C184.812 51.5167 182.946 53.4833 181.779 55.25C180.646 57.05 180.079 58.6167 180.079 59.95C180.079 60.5167 180.179 60.9833 180.379 61.35C180.612 61.7167 180.979 61.9 181.479 61.9Z" fill="#4DB4FF"/>
</svg>
