<svg width="72" height="25" viewBox="0 0 72 25" fill="none" xmlns="http://www.w3.org/2000/svg">
<path d="M9.98966 0.843999C10.3017 0.843999 10.5657 0.921999 10.7817 1.078C10.9977 1.222 11.1057 1.402 11.1057 1.618C11.1057 2.002 10.9857 2.314 10.7457 2.554C10.5057 2.782 10.1637 2.896 9.71966 2.896C9.02366 2.896 8.49566 2.902 8.13566 2.914C8.11166 3.058 8.00366 3.706 7.81166 4.858C7.59566 6.142 7.46366 6.928 7.41566 7.216L7.03766 9.574C6.77366 11.338 6.56366 12.814 6.40766 14.002C6.65966 13.99 7.00166 13.984 7.43366 13.984C8.06966 13.984 8.50166 14.068 8.72966 14.236C8.95766 14.404 9.07166 14.656 9.07166 14.992C9.07166 15.304 8.94566 15.568 8.69366 15.784C8.45366 16 8.11166 16.108 7.66766 16.108C7.36766 16.108 6.89366 16.096 6.24566 16.072C5.64566 16.048 5.24966 16.036 5.05766 16.036C4.30166 16.036 3.47366 16.102 2.57366 16.234C2.17766 16.294 1.89566 16.324 1.72766 16.324C1.46366 16.324 1.24166 16.252 1.06166 16.108C0.881656 15.964 0.791656 15.754 0.791656 15.478C0.791656 15.046 0.983656 14.71 1.36766 14.47C1.75166 14.23 2.29166 14.104 2.98766 14.092L3.83366 14.074L3.88766 13.678C4.17566 11.758 4.38566 10.402 4.51766 9.61L4.91366 7.252C5.15366 5.86 5.36966 4.426 5.56166 2.95L4.04966 2.968C3.61766 2.968 3.31766 2.902 3.14966 2.77C2.99366 2.626 2.91566 2.428 2.91566 2.176C2.91566 1.36 3.50366 0.922 4.67966 0.862C5.23166 0.837999 5.90366 0.825999 6.69566 0.825999L9.98966 0.843999ZM12.1518 16.09C11.6958 16.09 11.3718 15.85 11.1798 15.37C10.9998 14.89 10.9098 14.122 10.9098 13.066C10.9098 11.506 11.1318 10.024 11.5758 8.62C11.6838 8.272 11.8578 8.02 12.0978 7.864C12.3498 7.696 12.6978 7.612 13.1418 7.612C13.3818 7.612 13.5498 7.642 13.6458 7.702C13.7418 7.762 13.7898 7.876 13.7898 8.044C13.7898 8.236 13.6998 8.668 13.5198 9.34C13.3998 9.82 13.3038 10.24 13.2318 10.6C13.1598 10.96 13.0998 11.404 13.0518 11.932C13.4478 10.9 13.8918 10.06 14.3838 9.412C14.8758 8.764 15.3558 8.302 15.8238 8.026C16.3038 7.75 16.7418 7.612 17.1378 7.612C17.9178 7.612 18.3078 8.002 18.3078 8.782C18.3078 9.25 18.1758 10.096 17.9118 11.32C17.6838 12.364 17.5698 13.054 17.5698 13.39C17.5698 13.87 17.7438 14.11 18.0918 14.11C18.3318 14.11 18.6138 13.966 18.9378 13.678C19.2738 13.378 19.7178 12.898 20.2698 12.238C20.4138 12.07 20.5758 11.986 20.7558 11.986C20.9118 11.986 21.0318 12.058 21.1158 12.202C21.2118 12.346 21.2598 12.544 21.2598 12.796C21.2598 13.276 21.1458 13.648 20.9178 13.912C20.4018 14.548 19.8438 15.07 19.2438 15.478C18.6558 15.886 17.9838 16.09 17.2278 16.09C16.6158 16.09 16.1538 15.916 15.8418 15.568C15.5298 15.208 15.3738 14.692 15.3738 14.02C15.3738 13.684 15.4578 13.084 15.6258 12.22C15.7818 11.464 15.8598 10.942 15.8598 10.654C15.8598 10.462 15.7938 10.366 15.6618 10.366C15.5058 10.366 15.2838 10.57 14.9958 10.978C14.7198 11.374 14.4318 11.902 14.1318 12.562C13.8438 13.222 13.6098 13.918 13.4298 14.65C13.2978 15.214 13.1418 15.598 12.9618 15.802C12.7938 15.994 12.5238 16.09 12.1518 16.09ZM28.8892 10.528C28.9252 10.516 28.9852 10.51 29.0692 10.51C29.2492 10.51 29.3872 10.57 29.4832 10.69C29.5792 10.81 29.6272 10.972 29.6272 11.176C29.6272 11.548 29.5552 11.842 29.4112 12.058C29.2672 12.262 29.0512 12.412 28.7632 12.508C28.2112 12.688 27.6232 12.778 26.9992 12.778C26.4712 12.778 25.9732 12.706 25.5052 12.562C25.1572 13.126 24.7732 13.708 24.3532 14.308C23.8732 14.992 23.4592 15.46 23.1112 15.712C22.7632 15.964 22.3672 16.09 21.9232 16.09C21.4312 16.09 21.0412 15.898 20.7532 15.514C20.4772 15.13 20.3032 14.524 20.2312 13.696C20.0872 12.016 20.0152 10.546 20.0152 9.286V8.656C20.0272 8.26 20.1352 7.984 20.3392 7.828C20.5432 7.672 20.8492 7.594 21.2572 7.594C21.5692 7.594 21.7972 7.666 21.9412 7.81C22.0972 7.942 22.1752 8.17 22.1752 8.494C22.1752 9.874 22.2592 11.668 22.4272 13.876C23.1472 12.808 23.6872 11.956 24.0472 11.32C23.8672 10.972 23.7772 10.558 23.7772 10.078C23.7772 9.67 23.8672 9.274 24.0472 8.89C24.2272 8.506 24.4732 8.194 24.7852 7.954C25.0972 7.714 25.4512 7.594 25.8472 7.594C26.1952 7.594 26.4772 7.72 26.6932 7.972C26.9092 8.212 27.0172 8.566 27.0172 9.034C27.0172 9.574 26.8732 10.192 26.5852 10.888C27.0412 10.864 27.6472 10.774 28.4032 10.618L28.8892 10.528ZM30.4232 6.424C29.9192 6.424 29.5412 6.31 29.2892 6.082C29.0372 5.842 28.9112 5.512 28.9112 5.092C28.9112 4.672 29.0732 4.324 29.3972 4.048C29.7332 3.76 30.1472 3.616 30.6392 3.616C31.0832 3.616 31.4432 3.724 31.7192 3.94C31.9952 4.156 32.1332 4.462 32.1332 4.858C32.1332 5.338 31.9772 5.722 31.6652 6.01C31.3532 6.286 30.9392 6.424 30.4232 6.424ZM30.2792 16.09C29.4992 16.09 28.9292 15.814 28.5692 15.262C28.2212 14.71 28.0472 13.978 28.0472 13.066C28.0472 12.526 28.1132 11.836 28.2452 10.996C28.3892 10.144 28.5692 9.352 28.7852 8.62C28.8932 8.236 29.0372 7.972 29.2172 7.828C29.3972 7.684 29.6852 7.612 30.0812 7.612C30.6932 7.612 30.9992 7.816 30.9992 8.224C30.9992 8.524 30.8852 9.22 30.6572 10.312C30.3692 11.632 30.2252 12.526 30.2252 12.994C30.2252 13.354 30.2732 13.63 30.3692 13.822C30.4652 14.014 30.6272 14.11 30.8552 14.11C31.0712 14.11 31.3412 13.96 31.6652 13.66C31.9892 13.36 32.4212 12.886 32.9612 12.238C33.1052 12.07 33.2672 11.986 33.4472 11.986C33.6032 11.986 33.7232 12.058 33.8072 12.202C33.9032 12.346 33.9512 12.544 33.9512 12.796C33.9512 13.276 33.8372 13.648 33.6092 13.912C32.4212 15.364 31.3112 16.09 30.2792 16.09ZM40.5229 11.986C40.6789 11.986 40.7989 12.058 40.8829 12.202C40.9789 12.346 41.0269 12.544 41.0269 12.796C41.0269 13.276 40.9129 13.648 40.6849 13.912C40.1689 14.548 39.6049 15.07 38.9929 15.478C38.3809 15.886 37.6789 16.09 36.8869 16.09C34.4389 16.09 33.2149 14.368 33.2149 10.924C33.2149 10.396 33.2329 9.862 33.2689 9.322H32.5669C32.2069 9.322 31.9609 9.256 31.8289 9.124C31.7089 8.992 31.6489 8.782 31.6489 8.494C31.6489 7.822 31.9189 7.486 32.4589 7.486H33.4849C33.6889 6.166 34.0009 4.96 34.4209 3.868C34.8409 2.776 35.3449 1.906 35.9329 1.258C36.5329 0.609999 37.1749 0.286 37.8589 0.286C38.3629 0.286 38.7589 0.508 39.0469 0.952C39.3349 1.396 39.4789 1.954 39.4789 2.626C39.4789 4.486 38.6989 6.106 37.1389 7.486H39.1549C39.3469 7.486 39.4849 7.528 39.5689 7.612C39.6529 7.696 39.6949 7.852 39.6949 8.08C39.6949 8.908 39.0169 9.322 37.6609 9.322H35.4649C35.4409 9.922 35.4289 10.39 35.4289 10.726C35.4289 11.974 35.5729 12.85 35.8609 13.354C36.1609 13.858 36.6289 14.11 37.2649 14.11C37.7809 14.11 38.2369 13.954 38.6329 13.642C39.0289 13.33 39.4969 12.862 40.0369 12.238C40.1809 12.07 40.3429 11.986 40.5229 11.986ZM37.3729 2.014C37.1929 2.014 36.9889 2.242 36.7609 2.698C36.5449 3.142 36.3349 3.766 36.1309 4.57C35.9389 5.362 35.7769 6.244 35.6449 7.216C36.3529 6.604 36.8809 5.92 37.2289 5.164C37.5889 4.396 37.7689 3.7 37.7689 3.076C37.7689 2.368 37.6369 2.014 37.3729 2.014ZM56.2293 11.986C56.3853 11.986 56.5053 12.058 56.5893 12.202C56.6853 12.346 56.7333 12.544 56.7333 12.796C56.7333 13.264 56.6193 13.636 56.3913 13.912C55.2033 15.364 53.9373 16.09 52.5933 16.09C51.4293 16.09 50.4993 15.64 49.8033 14.74C49.1073 13.84 48.7593 12.55 48.7593 10.87C48.7593 10.462 48.7773 10.054 48.8133 9.646C48.0213 9.79 47.1573 9.898 46.2213 9.97C45.5973 10.018 45.1713 10.048 44.9433 10.06C44.7033 11.284 44.3673 12.784 43.9353 14.56C43.6833 15.604 43.2033 16.126 42.4953 16.126C41.7273 16.126 41.3433 15.778 41.3433 15.082C41.3433 14.926 41.3733 14.71 41.4333 14.434C41.8413 12.79 42.1653 11.398 42.4053 10.258L41.5413 10.294C41.1453 10.294 40.8573 10.228 40.6773 10.096C40.4973 9.952 40.4073 9.724 40.4073 9.412C40.4073 9.016 40.5213 8.728 40.7493 8.548C40.9773 8.356 41.3553 8.248 41.8833 8.224L42.8373 8.188C43.1493 6.496 43.3053 5.206 43.3053 4.318C43.3053 3.754 43.2213 3.37 43.0533 3.166C42.8853 2.962 42.6633 2.86 42.3873 2.86C41.5473 2.86 40.5993 3.562 39.5433 4.966C39.3873 5.17 39.2133 5.272 39.0213 5.272C38.8533 5.272 38.7093 5.194 38.5893 5.038C38.4693 4.882 38.4093 4.684 38.4093 4.444C38.4093 4.072 38.5593 3.676 38.8593 3.256C39.3873 2.524 40.0533 1.924 40.8573 1.456C41.6613 0.975999 42.4773 0.735999 43.3053 0.735999C44.0853 0.735999 44.6853 1.006 45.1053 1.546C45.5373 2.074 45.7533 2.902 45.7533 4.03C45.7533 5.026 45.6093 6.376 45.3213 8.08L47.0853 7.99C47.8413 7.954 48.4893 7.894 49.0293 7.81C49.2453 6.49 49.5753 5.254 50.0193 4.102C50.4633 2.95 51.0153 2.014 51.6753 1.294C52.3353 0.573999 53.0733 0.213999 53.8893 0.213999C54.4893 0.213999 54.9633 0.454 55.3113 0.934C55.6593 1.402 55.8333 2.02 55.8333 2.788C55.8333 5.764 54.3153 7.828 51.2793 8.98C51.2433 9.46 51.2253 9.958 51.2253 10.474C51.2253 11.734 51.3813 12.628 51.6933 13.156C52.0053 13.684 52.4433 13.948 53.0073 13.948C53.4993 13.948 53.9493 13.822 54.3573 13.57C54.7653 13.306 55.2273 12.862 55.7433 12.238C55.8873 12.07 56.0493 11.986 56.2293 11.986ZM53.7993 1.78C53.5353 1.78 53.2533 2.02 52.9533 2.5C52.6653 2.98 52.3893 3.634 52.1253 4.462C51.8613 5.29 51.6513 6.196 51.4953 7.18C52.4553 6.784 53.1633 6.22 53.6193 5.488C54.0753 4.756 54.3033 3.814 54.3033 2.662C54.3033 2.386 54.2553 2.17 54.1593 2.014C54.0633 1.858 53.9433 1.78 53.7993 1.78ZM65.642 11.986C65.798 11.986 65.918 12.058 66.002 12.202C66.098 12.346 66.146 12.544 66.146 12.796C66.146 13.276 66.032 13.648 65.804 13.912C65.36 14.452 64.73 14.95 63.914 15.406C63.11 15.862 62.246 16.09 61.322 16.09C60.062 16.09 59.084 15.748 58.388 15.064C57.692 14.38 57.344 13.444 57.344 12.256C57.344 11.428 57.518 10.66 57.866 9.952C58.214 9.232 58.694 8.662 59.306 8.242C59.93 7.822 60.632 7.612 61.412 7.612C62.108 7.612 62.666 7.822 63.086 8.242C63.506 8.65 63.716 9.208 63.716 9.916C63.716 10.744 63.416 11.458 62.816 12.058C62.228 12.646 61.226 13.114 59.81 13.462C60.11 14.014 60.68 14.29 61.52 14.29C62.06 14.29 62.672 14.104 63.356 13.732C64.052 13.348 64.652 12.85 65.156 12.238C65.3 12.07 65.462 11.986 65.642 11.986ZM61.106 9.376C60.662 9.376 60.284 9.634 59.972 10.15C59.672 10.666 59.522 11.29 59.522 12.022V12.058C60.23 11.89 60.788 11.638 61.196 11.302C61.604 10.966 61.808 10.576 61.808 10.132C61.808 9.904 61.742 9.724 61.61 9.592C61.49 9.448 61.322 9.376 61.106 9.376ZM70.9804 7.612C71.2564 7.612 71.4484 7.648 71.5564 7.72C71.6644 7.792 71.7184 7.912 71.7184 8.08C71.7184 8.368 71.5624 9.394 71.2504 11.158C70.9744 12.85 70.8124 13.852 70.7644 14.164C70.3204 17.248 69.7084 19.69 68.9284 21.49C68.1484 23.29 67.1104 24.19 65.8144 24.19C65.2024 24.19 64.7044 23.998 64.3204 23.614C63.9364 23.242 63.7444 22.75 63.7444 22.138C63.7444 21.574 63.8704 20.998 64.1224 20.41C64.3864 19.822 64.8664 19.144 65.5624 18.376C66.2704 17.62 67.2664 16.75 68.5504 15.766L68.6044 15.352C68.6884 14.908 68.7844 14.272 68.8924 13.444C68.6524 14.308 68.3164 14.968 67.8844 15.424C67.4524 15.868 66.9964 16.09 66.5164 16.09C65.9764 16.09 65.5324 15.844 65.1844 15.352C64.8484 14.848 64.6804 14.224 64.6804 13.48C64.6804 12.58 64.7404 11.758 64.8604 11.014C64.9804 10.258 65.1784 9.46 65.4544 8.62C65.5744 8.26 65.7424 8.002 65.9584 7.846C66.1744 7.69 66.5164 7.612 66.9844 7.612C67.2484 7.612 67.4284 7.654 67.5244 7.738C67.6324 7.822 67.6864 7.948 67.6864 8.116C67.6864 8.212 67.6204 8.536 67.4884 9.088C67.3684 9.532 67.2724 9.934 67.2004 10.294C67.1044 10.786 67.0204 11.26 66.9484 11.716C66.8764 12.16 66.8404 12.526 66.8404 12.814C66.8404 13.27 66.9664 13.498 67.2184 13.498C67.3984 13.498 67.6204 13.318 67.8844 12.958C68.1604 12.598 68.4484 12.052 68.7484 11.32C69.0604 10.588 69.3604 9.688 69.6484 8.62C69.7444 8.26 69.8884 8.002 70.0804 7.846C70.2844 7.69 70.5844 7.612 70.9804 7.612ZM66.0124 22.444C66.3124 22.444 66.6484 22.096 67.0204 21.4C67.3924 20.704 67.7644 19.546 68.1364 17.926C67.2124 18.706 66.5404 19.414 66.1204 20.05C65.7124 20.698 65.5084 21.262 65.5084 21.742C65.5084 21.946 65.5444 22.114 65.6164 22.246C65.7004 22.378 65.8324 22.444 66.0124 22.444Z" fill="#4DB4FF"/>
</svg>
