<svg width="20" height="24" viewBox="0 0 20 24" fill="none" xmlns="http://www.w3.org/2000/svg">
<path d="M16.3984 12.9102C16.3984 11.0312 17.2617 9.66016 18.9375 8.59375C17.9727 7.22266 16.5508 6.51172 14.6719 6.35938C12.8438 6.20703 10.8633 7.375 10.1523 7.375C9.39062 7.375 7.66406 6.41016 6.29297 6.41016C3.44922 6.46094 0.453125 8.64453 0.453125 13.1641C0.453125 14.4844 0.65625 15.8555 1.16406 17.2773C1.82422 19.1562 4.16016 23.7266 6.59766 23.625C7.86719 23.625 8.78125 22.7109 10.457 22.7109C12.082 22.7109 12.8945 23.625 14.3164 23.625C16.8047 23.625 18.9375 19.4609 19.5469 17.582C16.2461 16.0078 16.3984 13.0117 16.3984 12.9102ZM13.5547 4.58203C14.9258 2.95703 14.7734 1.43359 14.7734 0.875C13.5547 0.976562 12.1328 1.73828 11.3203 2.65234C10.4062 3.66797 9.89844 4.9375 10 6.30859C11.3203 6.41016 12.5391 5.75 13.5547 4.58203Z" fill="#1C1E24"/>
</svg>
