<svg width="22" height="27" viewBox="0 0 22 27" fill="none" xmlns="http://www.w3.org/2000/svg">
<path d="M11 26.3333C12.4667 26.3333 13.6667 25.1333 13.6667 23.6667H8.33334C8.33334 25.1333 9.53334 26.3333 11 26.3333ZM19 18.3333V11.6667C19 7.57334 16.8267 4.14668 13 3.24001V0.333344H9V3.24001C5.18667 4.14668 3 7.56001 3 11.6667V18.3333L0.333336 21V22.3333H21.6667V21L19 18.3333ZM16.3333 19.6667H5.66667V11.6667C5.66667 8.36001 7.68 5.66668 11 5.66668C14.32 5.66668 16.3333 8.36001 16.3333 11.6667V19.6667Z" fill="#4A4F5E"/>
</svg>
